<svg xmlns="http://www.w3.org/2000/svg" width="512" height="512" viewBox="0 0 512 512" version="1.1">
	<path d="M 276.324 1.390 C 274.027 2.136, 270.629 3.684, 268.773 4.832 C 262.801 8.522, 244.354 28.382, 238.572 37.345 C 230.511 49.840, 222.990 67.288, 219.042 82.654 L 217.974 86.809 207.737 81.469 C 190.873 72.672, 165.921 63.635, 159.080 63.846 C 154.832 63.977, 150.263 68.080, 149.432 72.509 C 148.945 75.106, 151.867 95.496, 153.516 101 C 153.845 102.101, 151.641 103.390, 145.232 105.845 C 128.014 112.441, 103.612 125.585, 88.500 136.402 C 32.407 176.555, -0.068 235.774, 0.020 297.743 C 0.090 347.371, 19.102 392.912, 55.658 431.017 C 133.200 511.845, 266.603 535.073, 376 486.794 C 443.369 457.064, 491.755 403.104, 507.036 340.664 C 508.629 334.154, 510.236 325.479, 510.607 321.386 C 510.977 317.293, 511.668 313.705, 512.140 313.413 C 512.613 313.121, 512.993 305.371, 512.985 296.191 C 512.974 285.045, 512.647 279.998, 512 281 C 511.258 282.148, 511.027 281.779, 511.015 279.426 C 510.990 274.405, 507.954 258.122, 505.341 249 C 492.468 204.051, 463.015 164.414, 420.500 134.823 C 411.198 128.348, 393.711 118.163, 384.480 113.844 L 378.054 110.837 381.027 104.947 C 384.170 98.721, 384.614 95.745, 383.025 91.566 C 380.962 86.139, 373.913 83.959, 351.745 81.889 C 330.054 79.863, 304.122 84.353, 286.759 93.139 L 283.017 95.032 284.707 91.266 C 287.958 84.022, 296.933 71.422, 305.511 62.058 C 317.665 48.791, 319.490 44.997, 319.490 33 C 319.490 24.574, 319.180 22.910, 316.745 18.283 C 310.759 6.907, 300.902 0.738, 288 0.294 C 283.682 0.145, 278.728 0.610, 276.324 1.390 M 0.409 297.500 C 0.408 306.850, 0.558 310.810, 0.743 306.299 C 0.928 301.789, 0.929 294.139, 0.745 289.299 C 0.562 284.460, 0.410 288.150, 0.409 297.500" stroke="none" fill="black" fill-rule="evenodd"/>
</svg>